<?xml version="1.0" encoding="UTF-8" standalone="no"?>
<svg
   xmlns:dc="http://purl.org/dc/elements/1.1/"
   xmlns:cc="http://creativecommons.org/ns#"
   xmlns:rdf="http://www.w3.org/1999/02/22-rdf-syntax-ns#"
   xmlns:svg="http://www.w3.org/2000/svg"
   xmlns="http://www.w3.org/2000/svg"
   viewBox="0 0 29 31.334667"
   height="31.334667"
   width="29"
   xml:space="preserve"
   id="svg2"
   version="1.1"><metadata
     id="metadata8"><rdf:RDF><cc:Work
         rdf:about=""><dc:format>image/svg+xml</dc:format><dc:type
           rdf:resource="http://purl.org/dc/dcmitype/StillImage" /></cc:Work></rdf:RDF></metadata><defs
     id="defs6"><clipPath
       id="clipPath18"
       clipPathUnits="userSpaceOnUse"><path
         id="path16"
         d="M 0,23.501 H 21.75 V 0 H 0 Z" /></clipPath></defs><g
     transform="matrix(1.3333333,0,0,-1.3333333,0,31.334667)"
     id="g10"><g
       id="g12"><g
         clip-path="url(#clipPath18)"
         id="g14"><g
           transform="translate(2,4.918)"
           id="g20"><path
             id="path22"
             style="fill:#9dacad;fill-opacity:1;fill-rule:nonzero;stroke:none"
             d="m 0,0 h 17.75 v 11.583 c 0,2.757 -2.244,5 -5,5 H 5 c -2.758,0 -5,-2.243 -5,-5 z M 18.75,-2 H -1 c -0.553,0 -1,0.447 -1,1 v 12.583 c 0,3.859 3.141,7 7,7 h 7.75 c 3.859,0 7,-3.141 7,-7 V -1 c 0,-0.553 -0.447,-1 -1,-1" /></g><g
           transform="translate(5.041)"
           id="g24"><path
             id="path26"
             style="fill:#9dacad;fill-opacity:1;fill-rule:nonzero;stroke:none"
             d="m 0,0 c -1.879,0 -3,0.61 -3,1.632 v 1.369 c 0,0.553 0.447,1 1,1 0.553,0 1,-0.447 1,-1 V 2.106 C -0.781,2.052 -0.441,2 0,2 0.441,2 0.781,2.052 1,2.106 v 0.895 c 0,0.553 0.447,1 1,1 0.553,0 1,-0.447 1,-1 V 1.632 C 3,0.61 1.879,0 0,0" /></g><g
           transform="translate(16.707)"
           id="g28"><path
             id="path30"
             style="fill:#9dacad;fill-opacity:1;fill-rule:nonzero;stroke:none"
             d="m 0,0 c -1.879,0 -3,0.61 -3,1.632 v 1.369 c 0,0.553 0.447,1 1,1 0.553,0 1,-0.447 1,-1 V 2.106 C -0.781,2.052 -0.441,2 0,2 0.441,2 0.781,2.052 1,2.106 v 0.895 c 0,0.553 0.447,1 1,1 0.553,0 1,-0.447 1,-1 V 1.632 C 3,0.61 1.879,0 0,0" /></g><g
           transform="translate(15.709,18.583)"
           id="g32"><path
             id="path34"
             style="fill:#9dacad;fill-opacity:1;fill-rule:nonzero;stroke:none"
             d="m 0,0 h -9.668 c -0.553,0 -1,0.447 -1,1 0,0.553 0.447,1 1,1 H 0 C 0.553,2 1,1.553 1,1 1,0.447 0.553,0 0,0" /></g><g
           transform="translate(6.125,9.9141)"
           id="g36"><path
             id="path38"
             style="fill:#9dacad;fill-opacity:1;fill-rule:nonzero;stroke:none"
             d="m 0,0 c -0.828,0 -1.498,-0.669 -1.498,-1.497 0,-0.828 0.67,-1.497 1.498,-1.497 0.828,0 1.496,0.669 1.496,1.497 C 1.496,-0.669 0.828,0 0,0" /></g><g
           transform="translate(15.625,9.9141)"
           id="g40"><path
             id="path42"
             style="fill:#9dacad;fill-opacity:1;fill-rule:nonzero;stroke:none"
             d="m 0,0 c -0.828,0 -1.498,-0.669 -1.498,-1.497 0,-0.828 0.67,-1.497 1.498,-1.497 0.828,0 1.496,0.669 1.496,1.497 C 1.496,-0.669 0.828,0 0,0" /></g><g
           transform="translate(4,17.001)"
           id="g44"><path
             id="path46"
             style="fill:#9dacad;fill-opacity:1;fill-rule:nonzero;stroke:none"
             d="m 0,0 c -0.275,0 -0.5,-0.225 -0.5,-0.5 v -4.375 c 0,-0.275 0.225,-0.5 0.5,-0.5 h 13.75 c 0.275,0 0.5,0.225 0.5,0.5 V -0.5 c 0,0.275 -0.225,0.5 -0.5,0.5 z M 13.75,-6.375 H 0 c -0.828,0 -1.5,0.673 -1.5,1.5 V -0.5 C -1.5,0.327 -0.828,1 0,1 h 13.75 c 0.826,0 1.5,-0.673 1.5,-1.5 v -4.375 c 0,-0.827 -0.674,-1.5 -1.5,-1.5" /></g></g></g></g></svg>