<?xml version="1.0" encoding="UTF-8" standalone="no"?>
<svg
   xmlns:dc="http://purl.org/dc/elements/1.1/"
   xmlns:cc="http://creativecommons.org/ns#"
   xmlns:rdf="http://www.w3.org/1999/02/22-rdf-syntax-ns#"
   xmlns:svg="http://www.w3.org/2000/svg"
   xmlns="http://www.w3.org/2000/svg"
   viewBox="0 0 34.703732 26.076134"
   height="26.076134"
   width="34.703732"
   xml:space="preserve"
   id="svg2"
   version="1.1"><metadata
     id="metadata8"><rdf:RDF><cc:Work
         rdf:about=""><dc:format>image/svg+xml</dc:format><dc:type
           rdf:resource="http://purl.org/dc/dcmitype/StillImage" /></cc:Work></rdf:RDF></metadata><defs
     id="defs6"><clipPath
       id="clipPath18"
       clipPathUnits="userSpaceOnUse"><path
         id="path16"
         d="M 0,19.557 H 26.028 V 0 H 0 Z" /></clipPath></defs><g
     transform="matrix(1.3333333,0,0,-1.3333333,0,26.076133)"
     id="g10"><g
       id="g12"><g
         clip-path="url(#clipPath18)"
         id="g14"><g
           transform="translate(22.0122)"
           id="g20"><path
             id="path22"
             style="fill:#1baf5d;fill-opacity:1;fill-rule:nonzero;stroke:none"
             d="m 0,0 h -6.396 c -0.553,0 -1,0.448 -1,1 v 6.304 h -3.206 V 1 c 0,-0.552 -0.447,-1 -1,-1 h -6.396 c -0.553,0 -1,0.448 -1,1 v 10.387 c 0,0.552 0.447,1 1,1 0.553,0 1,-0.448 1,-1 V 2 h 4.396 v 6.304 c 0,0.552 0.448,1 1,1 h 5.206 c 0.552,0 1,-0.448 1,-1 V 2 H -1 v 9.387 c 0,0.552 0.447,1 1,1 0.553,0 1,-0.448 1,-1 V 1 C 1,0.448 0.553,0 0,0" /></g><g
           transform="translate(25.0259,8.9541)"
           id="g24"><path
             id="path26"
             style="fill:#1baf5d;fill-opacity:1;fill-rule:nonzero;stroke:none"
             d="M 0,0 C -0.201,0 -0.404,0.061 -0.58,0.187 L -12.012,8.374 -23.443,0.187 c -0.448,-0.322 -1.075,-0.218 -1.397,0.231 -0.32,0.449 -0.217,1.074 0.233,1.395 l 12.013,8.604 c 0.348,0.249 0.817,0.249 1.164,0 L 0.584,1.813 C 1.033,1.492 1.137,0.867 0.814,0.418 0.619,0.145 0.312,0 0,0" /></g></g></g></g></svg>