<?xml version="1.0" encoding="UTF-8" standalone="no"?>
<svg
   xmlns:dc="http://purl.org/dc/elements/1.1/"
   xmlns:cc="http://creativecommons.org/ns#"
   xmlns:rdf="http://www.w3.org/1999/02/22-rdf-syntax-ns#"
   xmlns:svg="http://www.w3.org/2000/svg"
   xmlns="http://www.w3.org/2000/svg"
   viewBox="0 0 33.273468 21.8568"
   height="21.8568"
   width="33.273468"
   xml:space="preserve"
   id="svg2"
   version="1.1"><metadata
     id="metadata8"><rdf:RDF><cc:Work
         rdf:about=""><dc:format>image/svg+xml</dc:format><dc:type
           rdf:resource="http://purl.org/dc/dcmitype/StillImage" /></cc:Work></rdf:RDF></metadata><defs
     id="defs6"><clipPath
       id="clipPath18"
       clipPathUnits="userSpaceOnUse"><path
         id="path16"
         d="M 0,16.393 H 24.955 V 0 H 0 Z" /></clipPath></defs><g
     transform="matrix(1.3333333,0,0,-1.3333333,0,21.8568)"
     id="g10"><g
       id="g12"><g
         clip-path="url(#clipPath18)"
         id="g14"><g
           transform="translate(3.5039,10.5098)"
           id="g20"><path
             id="path22"
             style="fill:#f2eee8;fill-opacity:1;fill-rule:nonzero;stroke:none"
             d="M 0,0 8.701,-3.791 17.402,0 8.701,3.791 Z m 8.701,-5.882 c -0.135,0 -0.271,0.028 -0.398,0.083 l -11.205,4.882 c -0.366,0.159 -0.602,0.52 -0.602,0.917 0,0.397 0.236,0.758 0.602,0.917 L 8.303,5.799 c 0.254,0.111 0.545,0.111 0.799,0 L 20.305,0.917 C 20.67,0.758 20.904,0.397 20.904,0 c 0,-0.397 -0.234,-0.758 -0.599,-0.917 L 9.102,-5.799 C 8.975,-5.854 8.838,-5.882 8.701,-5.882" /></g><g
           transform="translate(12.2051)"
           id="g24"><path
             id="path26"
             style="fill:#f2eee8;fill-opacity:1;fill-rule:nonzero;stroke:none"
             d="m 0,0 c -3.031,0 -6.062,0.909 -8.766,2.728 -0.277,0.186 -0.443,0.497 -0.443,0.83 v 5.333 c 0,0.552 0.447,1 1,1 0.553,0 1,-0.448 1,-1 V 4.102 c 4.49,-2.793 9.928,-2.793 14.418,0 v 4.789 c 0,0.552 0.447,1 1,1 0.553,0 1,-0.448 1,-1 V 3.558 C 9.209,3.225 9.043,2.914 8.768,2.728 6.064,0.909 3.031,0 0,0" /></g><g
           transform="translate(23.9551,2.7236)"
           id="g28"><path
             id="path30"
             style="fill:#f2eee8;fill-opacity:1;fill-rule:nonzero;stroke:none"
             d="m 0,0 c -0.275,0 -0.5,0.224 -0.5,0.5 v 7.334 c 0,0.276 0.225,0.5 0.5,0.5 0.277,0 0.5,-0.224 0.5,-0.5 V 0.5 C 0.5,0.224 0.277,0 0,0" /></g><g
           transform="translate(23.9551,2.2236)"
           id="g32"><path
             id="path34"
             style="fill:#f2eee8;fill-opacity:1;fill-rule:nonzero;stroke:none"
             d="m 0,0 c -0.553,0 -1,0.447 -1,1 v 3.5 c 0,0.553 0.447,1 1,1 0.553,0 1,-0.447 1,-1 V 1 C 1,0.447 0.553,0 0,0" /></g></g></g></g></svg>