<?xml version="1.0" encoding="UTF-8" standalone="no"?>
<svg
   xmlns:dc="http://purl.org/dc/elements/1.1/"
   xmlns:cc="http://creativecommons.org/ns#"
   xmlns:rdf="http://www.w3.org/1999/02/22-rdf-syntax-ns#"
   xmlns:svg="http://www.w3.org/2000/svg"
   xmlns="http://www.w3.org/2000/svg"
   viewBox="0 0 360.30267 105.02147"
   height="105.02147"
   width="360.30267"
   xml:space="preserve"
   id="svg2"
   version="1.1"><metadata
     id="metadata8"><rdf:RDF><cc:Work
         rdf:about=""><dc:format>image/svg+xml</dc:format><dc:type
           rdf:resource="http://purl.org/dc/dcmitype/StillImage" /></cc:Work></rdf:RDF></metadata><defs
     id="defs6"><clipPath
       id="clipPath18"
       clipPathUnits="userSpaceOnUse"><path
         id="path16"
         d="M 0,78.766 H 270.227 V 0 H 0 Z" /></clipPath></defs><g
     transform="matrix(1.3333333,0,0,-1.3333333,0,105.02147)"
     id="g10"><g
       id="g12"><g
         clip-path="url(#clipPath18)"
         id="g14"><g
           transform="translate(62.6206,46.8867)"
           id="g20"><path
             id="path22"
             style="fill:#d1d3d4;fill-opacity:1;fill-rule:nonzero;stroke:none"
             d="m 0,0 h -0.012 c 1.379,3.137 2.15,6.602 2.15,10.248 0,14.086 -11.419,21.631 -25.505,21.631 -14.085,0 -25.504,-7.546 -25.504,-21.631 0,-3.646 0.77,-7.111 2.149,-10.248 h -0.012 l 0.132,-0.267 c 0.27,-0.596 0.559,-1.182 0.872,-1.751 l 22.322,-44.869 22.377,44.823 c 0.325,0.588 0.624,1.192 0.903,1.807 z" /></g><g
           transform="translate(39.2124)"
           id="g24"><path
             id="path26"
             style="fill:#e6e7e8;fill-opacity:1;fill-rule:nonzero;stroke:none"
             d="m 0,0 22.377,44.823 c 0.325,0.588 0.624,1.192 0.903,1.807 l 0.128,0.257 h -0.012 c 1.379,3.137 2.15,6.602 2.15,10.248 0,14.086 -11.419,21.631 -25.504,21.631" /></g><g
           transform="translate(39.2124,56.8408)"
           id="g28"><path
             id="path30"
             style="fill:#1baf5d;fill-opacity:1;fill-rule:nonzero;stroke:none"
             d="m 0,0 c 0,-11.211 0.693,-20.3 11.903,-20.3 11.211,0 20.3,9.089 20.3,20.3 0,11.211 -9.089,20.3 -20.3,20.3 -4.204,0 -8.109,-1.279 -11.349,-3.468 l 1.753,-4.137 c 0,0 1.928,-2.329 5.223,0.482 L 7.842,11.192 0.03,0" /></g><g
           transform="translate(67.3555,62.7119)"
           id="g32"><path
             id="path34"
             style="fill:#1baf5d;fill-opacity:1;fill-rule:nonzero;stroke:none"
             d="M 0,0 3.699,-2.047 11.106,-22 c 0,0 -21.362,-5.42 -27.346,-4.171 -5.983,1.249 -5.87,6.238 -5.87,6.238 0,0 24.693,-9.206 22.11,19.933" /></g><g
           transform="translate(39.2485,56.8408)"
           id="g36"><path
             id="path38"
             style="fill:#8dc63f;fill-opacity:1;fill-rule:nonzero;stroke:none"
             d="m 0,0 c 0,-11.211 -0.693,-20.3 -11.904,-20.3 -11.21,0 -20.299,9.089 -20.299,20.3 0,11.21 9.089,20.3 20.299,20.3 4.205,0 8.11,-1.279 11.349,-3.468 l -1.752,-4.137 c 0,0 -1.928,-2.33 -5.222,0.482 L -7.843,11.192 -0.03,0" /></g><g
           transform="translate(39.2485,56.8408)"
           id="g40"><path
             id="path42"
             style="fill:#8dc63f;fill-opacity:1;fill-rule:nonzero;stroke:none"
             d="m 0,0 c 0,-6.574 -5.33,-11.903 -11.904,-11.903 -6.574,0 -11.903,5.329 -11.903,11.903 0,6.573 5.329,11.903 11.903,11.903 C -5.33,11.903 0,6.574 0,0" /></g><g
           transform="translate(27.3442,42.8071)"
           id="g44"><path
             id="path46"
             style="fill:#ffffff;fill-opacity:1;fill-rule:nonzero;stroke:none"
             d="m 0,0 c -7.738,0 -14.034,6.296 -14.034,14.034 0,7.739 6.296,14.034 14.034,14.034 7.739,0 14.035,-6.295 14.035,-14.034 C 14.035,6.296 7.739,0 0,0 m 0,23.807 c -5.388,0 -9.772,-4.385 -9.772,-9.773 0,-5.388 4.384,-9.772 9.772,-9.772 5.39,0 9.773,4.384 9.773,9.772 0,5.389 -4.383,9.773 -9.773,9.773" /></g><g
           transform="translate(63.0254,56.8408)"
           id="g48"><path
             id="path50"
             style="fill:#1baf5d;fill-opacity:1;fill-rule:nonzero;stroke:none"
             d="m 0,0 c 0,-6.574 -5.33,-11.903 -11.903,-11.903 -6.575,0 -11.904,5.329 -11.904,11.903 0,6.574 5.329,11.904 11.904,11.904 C -5.33,11.904 0,6.574 0,0" /></g><g
           transform="translate(51.1221,42.8071)"
           id="g52"><path
             id="path54"
             style="fill:#ffffff;fill-opacity:1;fill-rule:nonzero;stroke:none"
             d="m 0,0 c -7.739,0 -14.035,6.296 -14.035,14.034 0,7.739 6.296,14.034 14.035,14.034 7.738,0 14.034,-6.295 14.034,-14.034 C 14.034,6.296 7.738,0 0,0 m 0,23.807 c -5.389,0 -9.773,-4.384 -9.773,-9.773 0,-5.388 4.384,-9.772 9.773,-9.772 5.388,0 9.772,4.384 9.772,9.772 0,5.389 -4.384,9.773 -9.772,9.773" /></g><g
           transform="translate(33.2158,56.8408)"
           id="g56"><path
             id="path58"
             style="fill:#000000;fill-opacity:1;fill-rule:nonzero;stroke:none"
             d="m 0,0 c 0,-3.242 -2.629,-5.871 -5.871,-5.871 -3.242,0 -5.871,2.629 -5.871,5.871 0,3.243 2.629,5.871 5.871,5.871 C -2.629,5.871 0,3.243 0,0" /></g><g
           transform="translate(56.8389,56.8408)"
           id="g60"><path
             id="path62"
             style="fill:#000000;fill-opacity:1;fill-rule:nonzero;stroke:none"
             d="m 0,0 c 0,-3.242 -2.628,-5.871 -5.871,-5.871 -3.243,0 -5.871,2.629 -5.871,5.871 0,3.243 2.628,5.871 5.871,5.871 C -2.628,5.871 0,3.243 0,0" /></g><g
           transform="translate(11.105,62.7119)"
           id="g64"><path
             id="path66"
             style="fill:#8dc63f;fill-opacity:1;fill-rule:nonzero;stroke:none"
             d="M 0,0 -3.698,-2.047 -11.105,-22 c 0,0 21.362,-5.42 27.345,-4.171 5.984,1.249 5.871,6.238 5.871,6.238 0,0 -24.694,-9.206 -22.111,19.933" /></g><g
           transform="translate(103.9404,55.9937)"
           id="g68"><path
             id="path70"
             style="fill:#4c5b6a;fill-opacity:1;fill-rule:nonzero;stroke:none"
             d="m 0,0 c 1.411,0 2.603,-0.154 3.58,-0.461 0.976,-0.308 1.789,-0.696 2.44,-1.165 v 14.369 h 7.049 v -32.4 c 0,-0.759 0.036,-1.563 0.109,-2.413 0.072,-0.85 0.19,-1.713 0.352,-2.589 0.162,-0.877 0.37,-1.749 0.623,-2.617 0.254,-0.867 0.56,-1.69 0.923,-2.467 H 8.487 c -0.181,0.144 -0.366,0.335 -0.556,0.569 -0.19,0.235 -0.375,0.488 -0.556,0.759 -0.181,0.272 -0.343,0.556 -0.487,0.854 -0.145,0.299 -0.263,0.583 -0.353,0.855 -0.976,-1.139 -2.101,-2.021 -3.376,-2.644 -1.274,-0.623 -2.725,-0.935 -4.351,-0.935 -2.043,0 -3.873,0.389 -5.491,1.165 -1.618,0.777 -2.987,1.844 -4.108,3.2 -1.121,1.356 -1.975,2.964 -2.562,4.826 -0.587,1.862 -0.881,3.877 -0.881,6.046 0,1.953 0.325,3.832 0.976,5.64 0.651,1.807 1.591,3.407 2.82,4.799 1.229,1.391 2.72,2.508 4.474,3.349 C -4.211,-0.42 -2.223,0 0,0 m 0.055,-24.944 c 1.102,0 2.114,0.112 3.036,0.339 0.923,0.225 1.899,0.628 2.929,1.206 v 16.973 c -0.76,0.343 -1.564,0.614 -2.414,0.814 -0.849,0.198 -1.761,0.298 -2.738,0.298 -1.23,0 -2.319,-0.254 -3.267,-0.759 -0.949,-0.507 -1.749,-1.189 -2.399,-2.047 -0.651,-0.859 -1.149,-1.862 -1.492,-3.01 -0.343,-1.148 -0.515,-2.363 -0.515,-3.647 0,-1.301 0.14,-2.562 0.42,-3.782 0.281,-1.22 0.705,-2.305 1.275,-3.253 0.569,-0.949 1.283,-1.709 2.142,-2.278 0.858,-0.569 1.865,-0.854 3.023,-0.854" /></g><g
           transform="translate(130.7993,55.5322)"
           id="g72"><path
             id="path74"
             style="fill:#4c5b6a;fill-opacity:1;fill-rule:nonzero;stroke:none"
             d="m 0,0 v -20.064 c 0,-0.777 0.113,-1.446 0.339,-2.006 0.225,-0.56 0.529,-1.016 0.909,-1.369 0.379,-0.352 0.827,-0.61 1.341,-0.773 0.515,-0.163 1.071,-0.244 1.667,-0.244 1.338,0 2.722,0.167 4.149,0.502 1.428,0.334 2.72,0.854 3.877,1.559 V 0 h 7.05 v -24.185 c 0,-0.47 0.054,-1.143 0.163,-2.02 0.108,-0.876 0.271,-1.902 0.488,-3.077 h -6.67 c -0.037,0.109 -0.095,0.312 -0.176,0.61 -0.082,0.298 -0.163,0.619 -0.244,0.963 -0.082,0.343 -0.159,0.668 -0.231,0.976 -0.072,0.306 -0.118,0.533 -0.135,0.678 -0.615,-0.542 -1.306,-1.044 -2.074,-1.505 -0.769,-0.461 -1.573,-0.859 -2.414,-1.193 -0.841,-0.335 -1.685,-0.592 -2.535,-0.773 -0.85,-0.181 -1.663,-0.271 -2.44,-0.271 -1.953,0 -3.575,0.267 -4.867,0.8 -1.292,0.533 -2.327,1.261 -3.104,2.182 -0.778,0.922 -1.329,2.007 -1.655,3.254 -0.324,1.248 -0.487,2.584 -0.487,4.013 l 0,19.548 z" /></g><g
           transform="translate(156.3838,68.7368)"
           id="g76"><path
             id="path78"
             style="fill:#4c5b6a;fill-opacity:1;fill-rule:nonzero;stroke:none"
             d="m 0,0 h 7.049 v -15.427 c 0.398,0.325 0.845,0.65 1.342,0.976 0.498,0.325 1.058,0.614 1.682,0.867 0.623,0.253 1.31,0.457 2.06,0.61 0.75,0.153 1.559,0.231 2.427,0.231 1.753,0 3.339,-0.236 4.758,-0.705 1.419,-0.471 2.625,-1.157 3.619,-2.061 0.995,-0.904 1.759,-2.02 2.292,-3.348 0.533,-1.329 0.8,-2.834 0.8,-4.515 v -19.115 h -7.05 v 19.007 c 0,1.898 -0.479,3.285 -1.437,4.161 -0.958,0.877 -2.287,1.316 -3.986,1.316 -0.541,0 -1.071,-0.032 -1.586,-0.095 -0.515,-0.064 -1.034,-0.163 -1.558,-0.298 -0.525,-0.136 -1.063,-0.299 -1.614,-0.489 -0.551,-0.189 -1.134,-0.411 -1.749,-0.664 V -42.487 H 0 Z" /></g><g
           transform="translate(201.9233,25.5186)"
           id="g80"><path
             id="path82"
             style="fill:#4c5b6a;fill-opacity:1;fill-rule:nonzero;stroke:none"
             d="m 0,0 c -2.386,0 -4.497,0.371 -6.331,1.112 -1.835,0.74 -3.376,1.793 -4.623,3.158 -1.247,1.365 -2.192,3.01 -2.833,4.935 -0.642,1.925 -0.963,4.071 -0.963,6.439 0,2.007 0.298,3.905 0.895,5.694 0.597,1.79 1.5,3.362 2.711,4.717 1.211,1.357 2.734,2.431 4.569,3.227 1.834,0.796 3.99,1.193 6.466,1.193 2.477,0 4.61,-0.397 6.399,-1.193 1.79,-0.796 3.263,-1.884 4.419,-3.267 1.157,-1.383 2.012,-3.009 2.563,-4.88 0.551,-1.871 0.827,-3.873 0.827,-6.006 0,-2.079 -0.322,-4.035 -0.962,-5.87 C 12.495,7.424 11.564,5.82 10.344,4.447 9.123,3.073 7.641,1.988 5.897,1.193 4.152,0.397 2.187,0 0,0 m -0.245,4.88 c 1.194,0 2.224,0.326 3.092,0.976 0.868,0.651 1.581,1.509 2.142,2.576 0.56,1.067 0.976,2.268 1.247,3.606 0.271,1.337 0.407,2.702 0.407,4.094 0,1.284 -0.122,2.499 -0.367,3.647 -0.243,1.148 -0.646,2.151 -1.206,3.009 -0.56,0.859 -1.284,1.542 -2.169,2.048 -0.886,0.505 -1.962,0.759 -3.226,0.759 -1.139,0 -2.147,-0.262 -3.024,-0.786 -0.877,-0.525 -1.604,-1.244 -2.182,-2.156 -0.579,-0.913 -1.017,-1.997 -1.315,-3.254 -0.298,-1.256 -0.447,-2.616 -0.447,-4.08 0,-1.193 0.13,-2.405 0.393,-3.634 0.261,-1.228 0.677,-2.35 1.247,-3.361 0.569,-1.012 1.301,-1.84 2.196,-2.481 0.894,-0.642 1.966,-0.963 3.212,-0.963" /></g><g
           transform="translate(234.4482,25.5186)"
           id="g84"><path
             id="path86"
             style="fill:#4c5b6a;fill-opacity:1;fill-rule:nonzero;stroke:none"
             d="m 0,0 c -2.386,0 -4.496,0.371 -6.331,1.112 -1.835,0.74 -3.376,1.793 -4.623,3.158 -1.247,1.365 -2.191,3.01 -2.833,4.935 -0.642,1.925 -0.963,4.071 -0.963,6.439 0,2.007 0.299,3.905 0.895,5.694 0.597,1.79 1.501,3.362 2.711,4.717 1.211,1.357 2.734,2.431 4.569,3.227 1.835,0.796 3.99,1.193 6.467,1.193 2.476,0 4.609,-0.397 6.399,-1.193 1.789,-0.796 3.262,-1.884 4.419,-3.267 1.157,-1.383 2.011,-3.009 2.562,-4.88 0.551,-1.871 0.827,-3.873 0.827,-6.006 0,-2.079 -0.321,-4.035 -0.962,-5.87 C 12.495,7.424 11.564,5.82 10.344,4.447 9.124,3.073 7.642,1.988 5.897,1.193 4.153,0.397 2.187,0 0,0 m -0.244,4.88 c 1.194,0 2.224,0.326 3.091,0.976 0.868,0.651 1.582,1.509 2.142,2.576 0.56,1.067 0.976,2.268 1.247,3.606 0.271,1.337 0.407,2.702 0.407,4.094 0,1.284 -0.122,2.499 -0.366,3.647 -0.244,1.148 -0.646,2.151 -1.207,3.009 -0.56,0.859 -1.283,1.542 -2.169,2.048 -0.885,0.505 -1.962,0.759 -3.226,0.759 -1.139,0 -2.146,-0.262 -3.023,-0.786 -0.877,-0.525 -1.605,-1.244 -2.183,-2.156 -0.578,-0.913 -1.017,-1.997 -1.315,-3.254 -0.298,-1.256 -0.447,-2.616 -0.447,-4.08 0,-1.193 0.13,-2.405 0.393,-3.634 0.262,-1.228 0.678,-2.35 1.247,-3.361 0.57,-1.012 1.301,-1.84 2.196,-2.481 0.895,-0.642 1.966,-0.963 3.213,-0.963" /></g><g
           transform="translate(250.2173,54.0684)"
           id="g88"><path
             id="path90"
             style="fill:#4c5b6a;fill-opacity:1;fill-rule:nonzero;stroke:none"
             d="m 0,0 4.312,1.464 1.843,7.565 h 5.206 V 1.464 h 7.185 l -0.651,-5.043 h -6.534 v -14.939 c 0,-0.832 0.058,-1.528 0.176,-2.088 0.118,-0.56 0.285,-1.012 0.502,-1.355 0.216,-0.344 0.488,-0.588 0.813,-0.732 0.325,-0.145 0.696,-0.218 1.112,-0.218 0.578,0 1.233,0.068 1.965,0.204 0.732,0.135 1.55,0.375 2.454,0.719 l 1.627,-3.444 c -1.302,-0.994 -2.58,-1.735 -3.836,-2.223 -1.257,-0.488 -2.481,-0.732 -3.674,-0.732 -1.627,0 -2.965,0.212 -4.013,0.637 -1.049,0.425 -1.885,1.03 -2.508,1.817 -0.624,0.786 -1.058,1.739 -1.301,2.86 -0.245,1.12 -0.366,2.377 -0.366,3.769 v 15.725 l -4.312,0 z" /></g></g></g></g></svg>