<?xml version="1.0" encoding="UTF-8" standalone="no"?>
<svg
   xmlns:dc="http://purl.org/dc/elements/1.1/"
   xmlns:cc="http://creativecommons.org/ns#"
   xmlns:rdf="http://www.w3.org/1999/02/22-rdf-syntax-ns#"
   xmlns:svg="http://www.w3.org/2000/svg"
   xmlns="http://www.w3.org/2000/svg"
   viewBox="0 0 31.569599 31.402399"
   height="31.402399"
   width="31.569599"
   xml:space="preserve"
   id="svg2"
   version="1.1"><metadata
     id="metadata8"><rdf:RDF><cc:Work
         rdf:about=""><dc:format>image/svg+xml</dc:format><dc:type
           rdf:resource="http://purl.org/dc/dcmitype/StillImage" /></cc:Work></rdf:RDF></metadata><defs
     id="defs6"><clipPath
       id="clipPath18"
       clipPathUnits="userSpaceOnUse"><path
         id="path16"
         d="M 0,23.552 H 23.677 V 0 H 0 Z" /></clipPath></defs><g
     transform="matrix(1.3333333,0,0,-1.3333333,0,31.4024)"
     id="g10"><g
       id="g12"><g
         clip-path="url(#clipPath18)"
         id="g14"><g
           transform="translate(6.2285,5.3418)"
           id="g20"><path
             id="path22"
             style="fill:#f2eee8;fill-opacity:1;fill-rule:nonzero;stroke:none"
             d="m 0,0 c -0.502,0 -1.119,-0.16 -1.738,-0.451 -1.645,-0.777 -2.584,-2.113 -2.483,-2.656 0.034,-0.186 0.448,-0.235 0.688,-0.235 0.502,0 1.117,0.16 1.736,0.451 1.649,0.777 2.588,2.113 2.486,2.657 C 0.654,-0.05 0.24,0 0,0 m -3.533,-5.342 c -1.422,0 -2.44,0.715 -2.654,1.866 -0.35,1.874 1.593,3.889 3.597,4.833 C -1.697,1.778 -0.801,2 0,2 1.422,2 2.439,1.285 2.654,0.134 3.004,-1.741 1.061,-3.756 -0.945,-4.699 -1.836,-5.12 -2.732,-5.342 -3.533,-5.342" /></g><path
           id="path24"
           style="fill:#f2eee8;fill-opacity:1;fill-rule:nonzero;stroke:none"
           d="m 8.924,5.298 h -2 v 13.671 h 2 z" /><g
           transform="translate(20.9824,8.9248)"
           id="g26"><path
             id="path28"
             style="fill:#f2eee8;fill-opacity:1;fill-rule:nonzero;stroke:none"
             d="m 0,0 c -0.504,0 -1.121,-0.16 -1.74,-0.452 -1.645,-0.776 -2.584,-2.112 -2.483,-2.655 0.034,-0.186 0.448,-0.235 0.686,-0.235 0.502,0 1.119,0.16 1.738,0.451 1.649,0.777 2.588,2.114 2.486,2.657 C 0.652,-0.049 0.238,0 0,0 m -3.537,-5.342 c -1.422,0 -2.438,0.715 -2.652,1.867 -0.35,1.873 1.593,3.888 3.597,4.832 C -1.699,1.778 -0.803,2 0,2 1.422,2 2.439,1.284 2.654,0.133 3.002,-1.74 1.059,-3.755 -0.947,-4.699 -1.838,-5.12 -2.734,-5.342 -3.537,-5.342" /></g><path
           id="path30"
           style="fill:#f2eee8;fill-opacity:1;fill-rule:nonzero;stroke:none"
           d="m 23.674,8.881 h -2 v 13.672 h 2 z" /><g
           transform="translate(8.9238,18.1826)"
           id="g32"><path
             id="path34"
             style="fill:#f2eee8;fill-opacity:1;fill-rule:nonzero;stroke:none"
             d="m 0,0 v -2.572 l 12.75,3.096 v 2.574 z m -1,-4.845 c -0.223,0 -0.441,0.074 -0.619,0.214 -0.24,0.19 -0.381,0.48 -0.381,0.786 v 4.631 c 0,0.462 0.316,0.863 0.764,0.972 l 14.75,3.584 c 0.297,0.07 0.613,0.004 0.855,-0.186 0.24,-0.189 0.381,-0.479 0.381,-0.786 v -4.632 c 0,-0.461 -0.314,-0.863 -0.764,-0.971 L -0.764,-4.816 C -0.842,-4.835 -0.922,-4.845 -1,-4.845" /></g><g
           transform="translate(6.2285,5.3418)"
           id="g36"><path
             id="path38"
             style="fill:#f2eee8;fill-opacity:1;fill-rule:nonzero;stroke:none"
             d="m 0,0 c -0.502,0 -1.119,-0.16 -1.738,-0.451 -1.645,-0.777 -2.584,-2.113 -2.483,-2.656 0.034,-0.186 0.448,-0.235 0.688,-0.235 0.502,0 1.117,0.16 1.736,0.451 1.649,0.777 2.588,2.113 2.486,2.657 C 0.654,-0.05 0.24,0 0,0 m -3.533,-5.342 c -1.422,0 -2.44,0.715 -2.654,1.866 -0.35,1.874 1.593,3.889 3.597,4.833 C -1.697,1.778 -0.801,2 0,2 1.422,2 2.439,1.285 2.654,0.134 3.004,-1.741 1.061,-3.756 -0.945,-4.699 -1.836,-5.12 -2.732,-5.342 -3.533,-5.342" /></g><path
           id="path40"
           style="fill:#f2eee8;fill-opacity:1;fill-rule:nonzero;stroke:none"
           d="m 8.924,5.298 h -2 v 13.671 h 2 z" /><g
           transform="translate(20.9824,8.9248)"
           id="g42"><path
             id="path44"
             style="fill:#f2eee8;fill-opacity:1;fill-rule:nonzero;stroke:none"
             d="m 0,0 c -0.504,0 -1.121,-0.16 -1.74,-0.452 -1.645,-0.776 -2.584,-2.112 -2.483,-2.655 0.034,-0.186 0.448,-0.235 0.686,-0.235 0.502,0 1.119,0.16 1.738,0.451 1.649,0.777 2.588,2.114 2.486,2.657 C 0.652,-0.049 0.238,0 0,0 m -3.537,-5.342 c -1.422,0 -2.438,0.715 -2.652,1.867 -0.35,1.873 1.593,3.888 3.597,4.832 C -1.699,1.778 -0.803,2 0,2 1.422,2 2.439,1.284 2.654,0.133 3.002,-1.74 1.059,-3.755 -0.947,-4.699 -1.838,-5.12 -2.734,-5.342 -3.537,-5.342" /></g><path
           id="path46"
           style="fill:#f2eee8;fill-opacity:1;fill-rule:nonzero;stroke:none"
           d="m 23.674,8.881 h -2 v 13.672 h 2 z" /><g
           transform="translate(8.9238,18.1826)"
           id="g48"><path
             id="path50"
             style="fill:#f2eee8;fill-opacity:1;fill-rule:nonzero;stroke:none"
             d="m 0,0 v -2.572 l 12.75,3.096 v 2.574 z m -1,-4.845 c -0.223,0 -0.441,0.074 -0.619,0.214 -0.24,0.19 -0.381,0.48 -0.381,0.786 v 4.631 c 0,0.462 0.316,0.863 0.764,0.972 l 14.75,3.584 c 0.297,0.07 0.613,0.004 0.855,-0.186 0.24,-0.189 0.381,-0.479 0.381,-0.786 v -4.632 c 0,-0.461 -0.314,-0.863 -0.764,-0.971 L -0.764,-4.816 C -0.842,-4.835 -0.922,-4.845 -1,-4.845" /></g></g></g></g></svg>